# xmcd
#
# Track frame offsets:
# 150
# 17772
# 40705
# 56642
# 74342
# 97602
# 126000
# 143667
# 160172
# 182490
#
# Disc length: 2616 seconds
#
#
# Revision: 2
# Processed by: cddbd v1.5PL3 Copyright (c) Steve Scherf et al.
# Submitted via: FreeRIP 2.70 
#
DISCID=770a360a
DTITLE=Zakiya Hooker - Another Generation of the Blues
DYEAR=1993
DGENRE=Blues
TTITLE0=Hey Lady
TTITLE1=Loving People
TTITLE2=Memory Left To Lose
TTITLE3=Love Hotel
TTITLE4=Dirty Things
TTITLE5=Mean Mean World
TTITLE6=Keep Your Pants On
TTITLE7=Funny (But I Still Love You)
TTITLE8=Angel Of The Blues
TTITLE9=Hang On For A While
EXTD=
EXTT0=
EXTT1=
EXTT2=
EXTT3=
EXTT4=
EXTT5=
EXTT6=
EXTT7=
EXTT8=
EXTT9=
PLAYORDER=
